<svg xmlns="http://www.w3.org/2000/svg" version="1.0" preserveAspectRatio="xMidYMid meet" viewBox="378.62 68.13 532.28 782.8">
<metadata>
Created by potrace 1.15, written by Peter Selinger 2001-2017
</metadata>
<g transform="translate(0.000000,853.000000) scale(0.100000,-0.100000)" fill="#000000" stroke="none">
<path d="M7550 7843 c-14 -2 -65 -16 -115 -30 -242 -69 -468 -241 -576 -438 -22 -41 -43 -75 -46 -75 -3 0 -22 16 -41 36 -54 56 -88 66 -192 58 -59 -5 -90 -3 -90 3 0 6 7 30 15 54 13 37 14 55 4 113 -11 65 -14 72 -75 133 -62 61 -97 82 -201 119 -72 25 -329 21 -409 -6 -78 -27 -146 -73 -179 -120 -26 -38 -28 -44 -20 -113 7 -66 7 -218 1 -225 -2 -1 -48 -7 -104 -11 -55 -5 -113 -15 -129 -23 -74 -35 -86 -192 -19 -247 9 -8 16 -22 16 -33 0 -10 11 -36 25 -56 32 -47 31 -58 -5 -77 -37 -19 -56 -48 -68 -102 -11 -48 8 -98 41 -109 11 -3 37 -23 57 -44 20 -20 42 -39 50 -42 10 -3 8 -11 -9 -35 -29 -39 -18 -65 37 -81 34 -10 40 -17 45 -45 3 -24 -2 -39 -18 -59 -19 -23 -22 -33 -15 -63 10 -44 24 -61 55 -69 13 -3 27 -15 30 -26 10 -31 50 -53 85 -46 17 3 30 1 30 -4 0 -5 12 -15 28 -22 33 -16 38 -54 7 -51 -11 1 -38 8 -60 17 -22 8 -63 15 -91 16 -51 0 -51 0 -86 -53 -57 -86 -68 -113 -68 -170 l0 -54 -93 -27 c-51 -14 -131 -31 -178 -37 -99 -12 -129 -28 -129 -68 0 -23 -7 -31 -32 -42 -73 -30 -198 -172 -261 -294 -14 -27 -51 -79 -82 -115 -80 -91 -101 -136 -129 -271 -3 -14 -16 -30 -29 -36 -35 -16 -173 -192 -191 -243 -13 -37 -14 -62 -5 -150 13 -131 21 -157 65 -209 60 -70 155 -109 289 -120 l80 -6 30 -62 c17 -34 38 -70 48 -81 25 -28 107 -61 179 -74 33 -6 62 -16 64 -23 8 -19 -34 -170 -65 -239 -15 -34 -53 -89 -85 -123 l-58 -62 46 -28 c54 -33 59 -56 21 -102 -14 -16 -33 -50 -41 -76 -12 -34 -27 -53 -61 -77 l-45 -31 7 -56 c4 -31 7 -82 6 -114 -3 -73 29 -128 84 -148 19 -7 35 -17 35 -23 0 -8 -40 -159 -76 -286 -9 -30 -31 -77 -49 -105 -32 -47 -56 -124 -101 -320 -8 -34 -13 -111 -13 -175 1 -101 -5 -144 -49 -355 -27 -132 -53 -264 -57 -292 -4 -29 -11 -56 -16 -59 -6 -3 -28 -28 -49 -56 -34 -42 -40 -57 -40 -97 0 -26 7 -70 15 -97 15 -50 20 -94 10 -94 -3 0 -51 16 -106 35 -60 21 -120 35 -147 35 -194 -1 -359 -138 -395 -329 -9 -46 -16 -61 -38 -73 -52 -30 -42 -94 29 -184 182 -230 292 -295 606 -360 65 -13 133 -24 150 -24 37 0 212 46 389 102 124 39 131 40 215 33 202 -18 300 -9 489 46 106 32 140 32 210 2 21 -8 75 -13 152 -13 72 0 131 -5 146 -12 16 -7 43 -40 66 -80 22 -38 51 -75 64 -84 83 -54 351 -77 668 -55 204 14 264 32 304 92 30 46 41 120 23 154 -9 17 -10 36 -4 62 4 21 8 76 9 123 0 102 -25 166 -102 258 -26 31 -53 65 -58 76 -6 10 -30 29 -55 42 -78 42 -78 42 -36 129 20 43 36 88 36 102 0 13 -23 75 -50 138 -28 62 -53 135 -57 162 -3 27 2 103 10 168 52 391 57 491 50 885 -4 226 -2 405 6 518 7 95 11 244 10 330 -2 274 -5 264 71 276 45 7 47 12 22 64 -10 20 -24 64 -31 97 -7 33 -23 97 -37 141 -13 45 -24 101 -24 125 0 24 -9 96 -20 159 -26 149 -26 193 -2 186 9 -3 87 -26 172 -52 133 -41 166 -48 236 -47 86 1 163 25 191 61 58 72 78 237 56 456 -14 144 -24 166 -104 252 -33 35 -50 64 -55 90 -8 47 -28 88 -65 134 -19 23 -31 53 -35 85 -14 98 -77 240 -143 320 -23 27 -41 52 -41 55 0 7 276 170 288 170 5 0 42 -14 83 -31 101 -41 250 -79 315 -79 29 0 56 -5 60 -11 8 -14 190 -4 319 17 221 37 363 107 521 256 78 75 142 173 192 293 50 123 55 154 49 298 -4 122 -8 141 -45 242 -103 289 -260 508 -493 695 -215 172 -478 294 -689 320 -81 10 -279 12 -330 3z m-665 -1369 c17 -32 40 -75 53 -95 12 -20 22 -43 22 -50 0 -8 -69 -84 -154 -168 l-154 -154 -36 17 c-20 9 -43 30 -51 46 -21 40 -53 60 -97 60 -21 0 -38 2 -38 5 0 15 79 85 110 98 48 19 100 70 100 97 0 32 22 100 32 100 4 0 8 6 8 14 0 22 40 46 75 46 21 0 40 9 55 25 13 14 29 24 34 22 6 -2 25 -30 41 -63z m-901 -3840 c14 -13 16 -50 16 -247 0 -128 5 -304 12 -393 10 -138 9 -184 -5 -335 -10 -95 -17 -210 -17 -254 0 -44 -5 -120 -11 -170 -6 -49 -12 -153 -13 -230 l-3 -139 -39 -24 c-21 -14 -62 -47 -91 -73 -28 -27 -59 -49 -68 -49 -25 0 -159 67 -180 90 -17 18 -18 37 -16 208 2 172 4 193 28 257 74 207 117 422 133 665 14 212 20 245 110 530 23 74 48 145 56 158 17 26 65 30 88 6z"/>
</g>
</svg>